<svg width="134" height="134" viewBox="0 0 134 134" fill="none" xmlns="http://www.w3.org/2000/svg">
<rect width="134" height="134" fill="white"/>
<path d="M81.478 70.7387V46.3213H84.4905L97.1629 65.4991V46.3213H100.175V70.7387H97.1629L84.4905 51.5609V70.7387H81.478ZM104.881 70.7387V46.3213H120.213V49.1869H107.894V56.8343H118.193V59.7H107.894V67.873H120.213V70.7387H104.881Z" fill="#212121"/>
<path d="M19.9559 71.2479C18.6656 71.2479 17.4651 71.0783 16.3544 70.7392C15.2549 70.4001 14.2788 69.914 13.4261 69.2809C12.5734 68.6479 11.8666 67.8849 11.3056 66.9918C10.7559 66.0988 10.38 65.0927 10.178 63.9736L13.2746 63.4818C13.6673 65.0531 14.4527 66.2627 15.6307 67.1105C16.82 67.9583 18.3122 68.3823 20.1073 68.3823C20.9712 68.3823 21.7566 68.2805 22.4634 68.077C23.1815 67.8623 23.7985 67.5627 24.3146 67.1783C24.8307 66.794 25.229 66.3418 25.5095 65.8218C25.79 65.2905 25.9302 64.7027 25.9302 64.0583C25.9302 62.374 24.8027 61.1927 22.5476 60.5144L16.3712 58.6662C12.8707 57.6149 11.1205 55.6083 11.1205 52.6466C11.1205 51.6292 11.328 50.7023 11.7432 49.8657C12.1583 49.0292 12.7361 48.3114 13.4766 47.7123C14.2171 47.1131 15.1034 46.6496 16.1356 46.3218C17.1678 45.994 18.301 45.8301 19.5351 45.8301C20.7693 45.8301 21.908 45.994 22.9515 46.3218C23.9949 46.6496 24.9149 47.1188 25.7115 47.7292C26.5193 48.3396 27.1924 49.0857 27.731 49.9675C28.2695 50.8492 28.651 51.8496 28.8754 52.9688L25.6946 53.5283C25.5712 52.7823 25.33 52.1096 24.971 51.5105C24.6232 50.9114 24.18 50.4083 23.6415 50.0014C23.1141 49.5831 22.4971 49.2609 21.7902 49.0349C21.0946 48.8088 20.3317 48.6957 19.5015 48.6957C18.7161 48.6957 17.998 48.7918 17.3473 48.984C16.7078 49.1762 16.158 49.4475 15.698 49.7979C15.2493 50.137 14.9015 50.544 14.6546 51.0188C14.4078 51.4823 14.2844 51.9853 14.2844 52.5279C14.2844 52.9575 14.3573 53.3475 14.5032 53.6979C14.6602 54.037 14.9015 54.3536 15.2268 54.6475C15.5522 54.9301 15.9729 55.1901 16.489 55.4275C17.0051 55.6536 17.6278 55.874 18.3571 56.0888L22.9346 57.4283C26.9961 58.5814 29.0268 60.7462 29.0268 63.9227C29.0268 65.0192 28.808 66.0196 28.3705 66.924C27.9441 67.817 27.3327 68.5857 26.5361 69.2301C25.7395 69.8744 24.7859 70.3718 23.6751 70.7223C22.5644 71.0727 21.3246 71.2479 19.9559 71.2479ZM37.9592 70.7392V49.1875H30.5375V46.3218H48.2924V49.1875H40.9717V70.7392H37.9592Z" fill="#212121"/>
<path d="M16.083 93.3478H14.8064L12.0086 83.4952H13.2785L15.4447 91.3568L17.611 83.4952H18.8809L21.0539 91.3568L23.2201 83.4952H24.49L21.6922 93.3478H20.4155L18.2493 85.5546L16.083 93.3478ZM37.0757 93.553C34.149 93.553 32.5125 91.4594 32.5125 88.4214C32.5125 85.3836 34.149 83.29 37.0757 83.29C40.0026 83.29 41.6392 85.3836 41.6392 88.4214C41.6392 91.4594 40.0026 93.553 37.0757 93.553ZM37.0757 92.39C39.2624 92.39 40.3557 90.782 40.3557 88.4214C40.3557 86.061 39.2624 84.453 37.0757 84.453C34.8892 84.453 33.8095 86.061 33.7959 88.4214C33.7823 90.782 34.8892 92.39 37.0757 92.39ZM56.4759 93.3478L54.1061 89.7078H51.8922V93.3478H50.6766V83.4952H54.3776C56.5099 83.4952 57.6848 84.6788 57.6848 86.6014C57.6848 88.1684 56.8969 89.2494 55.4437 89.5914L57.8885 93.3478H56.4759ZM51.8922 84.6514V88.5514H54.3709C55.6883 88.5514 56.4487 87.833 56.4487 86.6014C56.4487 85.37 55.6883 84.6514 54.3709 84.6514H51.8922ZM67.0509 93.3478V83.4952H68.2665V88.141L72.5445 83.4952H74.0656L69.6246 88.2778L74.412 93.3478H72.8502L68.2665 88.5172V93.3478H67.0509ZM84.3918 93.3478H83.1764V83.4952H84.3918V93.3478ZM95.3117 93.3478H94.0961V83.4952H95.3117L100.425 91.2336V83.4952H101.641V93.3478H100.425L95.3117 85.6094V93.3478ZM116.143 93.512C114.504 93.512 113.255 93.0833 112.395 92.2256C111.535 91.3591 111.104 90.1275 111.104 88.531C111.104 87.3633 111.317 86.4191 111.743 85.6984C112.177 84.9685 112.761 84.4394 113.495 84.111C114.228 83.7733 115.052 83.6046 115.967 83.6046C116.537 83.6046 117.049 83.6639 117.501 83.7826C117.954 83.892 118.384 84.0607 118.792 84.2888V85.3562L118.52 85.493C118.185 85.2285 117.814 85.0233 117.406 84.8772C116.999 84.7223 116.496 84.6446 115.899 84.6446C115.202 84.6446 114.581 84.7723 114.038 85.0278C113.504 85.2833 113.083 85.6984 112.775 86.273C112.476 86.8478 112.327 87.6188 112.327 88.5856C112.327 89.863 112.63 90.83 113.237 91.4868C113.843 92.1436 114.799 92.472 116.102 92.472C116.628 92.472 117.098 92.4126 117.515 92.2942C117.931 92.1665 118.325 91.9384 118.697 91.61L119.077 91.8836V92.9372C118.678 93.1107 118.239 93.2475 117.759 93.3478C117.288 93.4572 116.75 93.512 116.143 93.512ZM117.922 92.9372V88.7226H119.077V92.9372H117.922ZM115.6 89.3656V88.2162H119.077V89.2288H116.415L115.6 89.3656Z" fill="#212121"/>
<path d="M69.3049 69.3265H56.6829L51.0732 59.4352L56.6829 48.1309H69.3049L74.9146 59.4352L69.3049 69.3265Z" stroke="#5250C5" stroke-width="3"/>
</svg>
