<svg width="39" height="40" viewBox="0 0 39 40" fill="none" xmlns="http://www.w3.org/2000/svg">
<path fill-rule="evenodd" clip-rule="evenodd" d="M19.5001 2.53125C17.453 2.53125 15.4897 3.34447 14.0421 4.79202C12.5946 6.23957 11.7813 8.20286 11.7813 10.25C11.7813 12.2971 12.5946 14.2604 14.0421 15.708C15.4897 17.1555 17.453 17.9688 19.5001 17.9688C21.5472 17.9688 23.5105 17.1555 24.9581 15.708C26.4056 14.2604 27.2188 12.2971 27.2188 10.25C27.2188 8.20286 26.4056 6.23957 24.9581 4.79202C23.5105 3.34447 21.5472 2.53125 19.5001 2.53125ZM14.2188 10.25C14.2188 8.84933 14.7753 7.50602 15.7657 6.51559C16.7561 5.52517 18.0994 4.96875 19.5001 4.96875C20.9008 4.96875 22.2441 5.52517 23.2345 6.51559C24.2249 7.50602 24.7813 8.84933 24.7813 10.25C24.7813 11.6507 24.2249 12.994 23.2345 13.9844C22.2441 14.9748 20.9008 15.5312 19.5001 15.5312C18.0994 15.5312 16.7561 14.9748 15.7657 13.9844C14.7753 12.994 14.2188 11.6507 14.2188 10.25ZM19.5001 20.4062C15.7415 20.4062 12.277 21.261 9.71109 22.704C7.18259 24.1275 5.28134 26.2822 5.28134 28.9375V29.1032C5.27972 30.9915 5.27809 33.3608 7.35647 35.054C8.37859 35.886 9.81022 36.4791 11.744 36.8691C13.681 37.2624 16.2078 37.4688 19.5001 37.4688C22.7923 37.4688 25.3176 37.2624 27.2578 36.8691C29.1916 36.4791 30.6216 35.886 31.6453 35.054C33.7237 33.3608 33.7205 30.9915 33.7188 29.1032V28.9375C33.7188 26.2822 31.8176 24.1275 29.2907 22.704C26.7232 21.261 23.2603 20.4062 19.5001 20.4062ZM7.71884 28.9375C7.71884 27.5546 8.72959 26.0531 10.9055 24.8295C13.044 23.627 16.0795 22.8438 19.5017 22.8438C22.9207 22.8438 25.9562 23.627 28.0947 24.8295C30.2722 26.0531 31.2813 27.5546 31.2813 28.9375C31.2813 31.063 31.2163 32.259 30.1048 33.1625C29.5036 33.6532 28.4961 34.1326 26.7736 34.4804C25.056 34.8281 22.7078 35.0312 19.5001 35.0312C16.2923 35.0312 13.9426 34.8281 12.2266 34.4804C10.5041 34.1326 9.49659 33.6532 8.89534 33.1641C7.78384 32.259 7.71884 31.063 7.71884 28.9375Z" fill="#5250C5"/>
</svg>
